<svg width="203" height="80" viewBox="0 0 203 80" fill="none" xmlns="http://www.w3.org/2000/svg">
<path d="M15.9163 46.2803C15.5774 39.8798 18.4582 25.6019 32.6925 19.6937C46.9269 13.7856 66.4144 12.6368 74.3789 12.8009C72.3454 14.278 68.1768 17.3305 67.7701 17.7244C67.3634 18.1182 68.6174 18.5449 69.2952 18.709C74.5484 18.0526 85.8681 16.8381 89.1216 17.232C93.1886 17.7244 104.881 12.8009 110.982 13.2933C115.862 13.6871 117.76 14.1138 118.099 14.278C114.032 14.4421 104.983 16.1489 101.323 21.6631C101.323 22.1554 123.182 20.1861 131.316 17.232C139.45 14.278 154.193 11.8162 163.852 15.755C158.429 16.0832 146.466 17.7244 141.992 21.6631C136.4 26.5865 128.266 32.4946 122.166 36.9257L122.166 36.9257C117.285 40.4706 106.237 42.0133 101.323 42.3415C104.373 43.3262 111.795 45.3941 117.082 45.7879C122.369 46.1818 125.046 46.9367 125.724 47.265C122.505 47.1008 114.438 47.3634 107.931 49.7267C101.424 52.0899 92.0024 52.6807 88.1049 52.6807C89.3476 53.7505 92.2778 55.7573 95.5206 56.677C96.4457 56.7722 97.2016 56.9303 97.7639 57.1118C97.0108 57.0389 96.2576 56.886 95.5206 56.677C91.4275 56.2558 84.0203 57.0662 75.3956 62.5276C62.178 70.8974 36.2511 74.3438 26.0837 67.9434C17.9498 62.823 15.9163 51.3678 15.9163 46.2803Z" fill="#FF842B" stroke="black"/>
<path d="M40.3179 27.5712C36.7593 25.1095 33.709 27.0789 29.1337 31.51C26.4171 33.9717 28.117 38.8951 28.117 39.8798C28.117 40.8645 22.5249 40.8645 22.0165 47.265C21.5082 53.6654 29.1337 52.6807 29.1337 54.1578C30.3538 60.0659 35.4036 61.8712 37.776 62.0353C35.7425 62.6917 39.8095 66.4664 42.8597 67.451C50.9936 70.0769 56.7552 63.6764 58.1108 60.0659C58.9581 60.0659 61.5677 59.2781 65.228 56.1271C68.8883 52.9761 65.3975 48.9061 63.1945 47.265C63.8723 47.1009 65.838 46.2803 68.2782 44.3109C71.3284 41.8492 69.295 37.9104 67.7699 35.9411C66.2447 33.9717 65.7364 33.4794 65.228 29.0483C64.7196 24.6172 58.6192 24.6172 56.5857 25.1095C54.5522 25.6019 53.0271 22.6478 47.9434 22.6478C42.8597 22.6478 43.8764 30.0329 40.3179 27.5712Z" fill="#FFE600"/>
<path d="M56.4617 27.4936C54.6794 24.7653 51.8239 22.3339 48.2594 23.2991C44.5224 24.3013 43.6025 27.9019 43.2192 31.1685C43.1042 32.1893 41.4561 32.0965 41.3795 31.0943C40.6895 21.4987 53.5296 17.9166 57.4391 27.0111C57.669 27.5679 56.8066 28.0133 56.4809 27.4936H56.4617Z" fill="#3A3A3A"/>
<path d="M42.6827 32.7461C41.7628 32.0965 40.5938 31.5954 39.5781 32.3007C38.5049 33.0245 38.3516 34.4537 37.2018 35.0661C36.8568 35.2517 36.3969 35.1775 36.2435 34.7692C35.5728 33.0431 37.4126 30.9458 38.9457 30.222C40.7471 29.3682 42.5677 30.0549 43.9475 31.317C44.8674 32.1522 43.6984 33.4514 42.7019 32.7461H42.6827Z" fill="#3A3A3A"/>
<path d="M41.2064 28.4031C39.4241 27.9762 38.0635 27.0482 36.1279 27.3452C33.9623 27.6792 32.0267 28.997 30.6469 30.5932C29.2862 32.1708 28.3664 34.1381 28.2514 36.1983C28.1364 38.4441 29.5737 39.966 29.8995 42.0447C29.9762 42.5644 29.3629 42.9541 28.9029 42.7314C26.6416 41.6364 26.0283 38.2213 26.2008 35.9941C26.3733 33.4514 27.5807 31.02 29.3629 29.1455C31.8926 26.4914 39.1558 23.1692 41.6663 27.7349C41.8388 28.0319 41.6471 28.5144 41.2255 28.4216L41.2064 28.4031Z" fill="#3A3A3A"/>
<path d="M31.1068 40.6156C30.9343 41.191 30.7044 41.7849 30.6085 42.3788C30.5127 42.8614 30.666 43.3439 30.5511 43.8079C30.4361 44.1977 30.0528 44.3276 29.6886 44.1049C28.5388 43.3625 29.5162 41.1724 29.9186 40.2444C30.1869 39.6134 31.3176 39.9475 31.1068 40.6156Z" fill="#3A3A3A"/>
<path d="M28.0024 40.8012C25.262 42.119 23.0773 44.6617 23.1923 47.7427C23.3456 51.4547 26.7376 52.624 30.0339 52.8838C31.0879 52.9581 31.0113 54.6841 29.9572 54.6841C25.7794 54.6656 21.6783 52.5497 21.3525 48.1325C21.065 44.3277 23.8055 40.6528 27.5808 39.7248C28.3282 39.5392 28.6732 40.4672 27.9833 40.8012H28.0024Z" fill="#3A3A3A"/>
<path d="M30.8581 51.3062C29.8424 54.5728 29.7274 57.6537 33.1386 59.584C36.2432 61.3472 39.6544 60.6234 42.5482 58.8602C43.6023 58.2291 44.5605 59.6026 43.6406 60.3821C40.3444 63.129 35.17 63.2774 31.6055 60.9203C28.1176 58.6189 27.1402 54.1088 29.5549 50.7123C29.9574 50.1369 31.0689 50.6195 30.8581 51.3062Z" fill="#3A3A3A"/>
<path d="M38.255 60.9389C39.3474 65.5046 42.2221 67.6576 47.2047 66.9894C52.4174 66.2841 56.2502 62.832 57.2851 57.8579C57.5534 56.5773 59.4698 56.9299 59.3165 58.2105C58.5882 64.3168 52.8007 68.5856 46.6873 69.031C41.9346 69.3837 35.8212 66.5811 37.0477 61.0502C37.1627 60.512 38.1209 60.3078 38.2742 60.9389H38.255Z" fill="#3A3A3A"/>
<path d="M55.9442 24.4684C58.493 22.7609 61.6934 23.3919 63.9356 25.3964C65.8712 27.141 67.9601 31.5954 65.6413 33.7855C65.2005 34.1938 64.5489 33.9897 64.4339 33.4143C64.204 32.2636 64.7214 31.1314 64.4914 29.925C64.2614 28.7186 63.629 27.605 62.7283 26.7513C61.0993 25.2108 58.6655 24.6725 56.5191 25.5263C55.8484 25.8047 55.3501 24.8396 55.9442 24.4498V24.4684Z" fill="#3A3A3A"/>
<path d="M61.3294 31.2985C66.5804 30.686 70.5474 35.1404 70.6241 39.9846C70.7007 44.1791 66.063 50.4895 61.0803 48.2067C60.6395 48.0025 60.5054 47.2972 60.9845 47.0374C62.8434 46.0537 64.9898 46.3135 66.6379 44.773C67.9794 43.511 68.5927 41.6921 68.5735 39.9289C68.5352 35.6972 65.4497 33.0802 61.272 32.8761C60.3137 32.8204 60.4479 31.3913 61.3294 31.2985Z" fill="#3A3A3A"/>
<path d="M64.3385 47.3157C67.3281 48.6706 68.2863 52.197 67.1364 55.0553C65.7566 58.5074 62.0387 60.6975 58.3592 61.1058C56.9602 61.2543 56.8261 59.2869 58.1484 59.0271C60.9272 58.4889 63.6677 57.2268 65.0284 54.6469C66.389 52.0671 65.2392 50.2297 63.5527 48.1881C63.1503 47.7055 63.7827 47.0745 64.3193 47.3157H64.3385Z" fill="#3A3A3A"/>
<path d="M55.8294 32.2636C58.0525 33.2287 59.7389 35.1961 59.3556 37.6646C59.0107 39.9289 56.8643 42.3046 54.4496 42.5087C53.7405 42.5644 53.4914 41.7292 53.9896 41.3209C55.3695 40.2073 57.0368 39.6505 57.6309 37.8316C58.2633 35.8828 56.9026 34.3423 55.2928 33.3586C54.6413 32.9503 55.082 31.9295 55.8294 32.2636Z" fill="#3A3A3A"/>
<path d="M59.2979 44.309C60.486 45.3298 61.0801 46.5547 60.7927 48.1138C60.5244 49.58 59.5853 51.0463 58.1672 51.6588C57.7072 51.8629 57.3239 51.3432 57.4964 50.9535C57.918 49.9884 58.7229 49.2645 59.087 48.2623C59.5086 47.1301 59.1253 46.0351 58.4354 45.0699C58.0522 44.5503 58.7996 43.8635 59.2979 44.309Z" fill="#3A3A3A"/>
<path d="M40.1714 42.5087C39.4815 44.3647 39.0216 46.1093 40.3056 47.8725C41.5704 49.5986 43.3335 49.5058 45.1541 50.2482C45.6907 50.471 45.5374 51.1206 45.0966 51.3433C42.7586 52.4754 39.769 50.471 38.5999 48.5593C37.3543 46.5362 37.2776 43.5666 39.1365 41.8591C39.654 41.3765 40.4206 41.8591 40.1714 42.5087Z" fill="#3A3A3A"/>
<path d="M54.0664 48.3923C53.8172 49.3203 53.4148 50.0441 52.6099 50.638C51.9199 51.1391 50.9043 51.6403 50.1377 51.0835C49.8694 50.8979 49.9078 50.5452 50.0802 50.3039C50.4443 49.8028 51.0959 49.8028 51.6133 49.4687C52.1499 49.1161 52.6099 48.5778 52.9165 48.0396C53.2231 47.4828 54.258 47.7241 54.0664 48.3923Z" fill="#3A3A3A"/>
<path d="M54.1232 57.8579C53.7016 59.2313 53.0692 60.1779 51.6702 60.7903C50.4054 61.3471 48.6998 61.5513 47.4158 60.9388C47.0325 60.7532 47.0133 60.1407 47.4541 60.0108C48.4698 59.6953 49.5621 59.8252 50.5778 59.5097C51.5935 59.2127 52.4751 58.4147 52.9351 57.4867C53.2225 56.8927 54.3148 57.1711 54.104 57.8579H54.1232Z" fill="#3A3A3A"/>
<path d="M50.4247 37.182C48.24 36.1426 46.2086 36.718 43.9089 36.7366C43.4873 36.7366 43.104 36.1241 43.5831 35.8828C46.0553 34.6207 48.8341 34.4351 51.1721 36.0498C51.8237 36.4953 51.1146 37.5161 50.4247 37.182Z" fill="#3A3A3A"/>
<path d="M74.0158 13.1468C61.6357 14.1119 48.2399 13.7964 36.6264 18.6034C23.4031 24.0786 13.8019 37.4604 16.849 51.6217C23.7289 83.6934 64.2229 67.4349 83.6937 58.0992C84.2495 57.8208 84.7286 58.7302 84.2111 59.0457C64.5678 70.8685 22.2342 85.0112 14.9901 52.16C12.5371 41.0425 17.5389 29.758 26.4119 22.6124C39.6736 11.9404 57.8029 13.1282 73.9583 12.3301C74.4949 12.3116 74.5907 13.1097 74.035 13.1468H74.0158Z" fill="#3A3A3A"/>
<path d="M75.4148 13.6851C72.9234 14.9286 70.6046 16.2649 68.324 17.8239C67.9216 18.1023 67.4425 17.5827 67.7491 17.2115C69.5697 15.0214 72.406 13.7593 75.0123 12.6271C75.7022 12.3302 76.0664 13.351 75.4148 13.6851Z" fill="#3A3A3A"/>
<path d="M68.9562 18.158C77.8484 16.1164 86.7789 17.3785 95.8052 15.1513C103.394 13.2767 110.389 11.3464 118.132 13.685C118.764 13.8706 118.63 14.8357 117.94 14.6873C108.434 12.7385 100.596 15.6153 91.455 17.5455C84.0192 19.1231 76.5644 17.6012 69.1287 18.8818C68.7071 18.9561 68.5346 18.2508 68.9562 18.158Z" fill="#3A3A3A"/>
<path d="M118.093 14.6872C114.682 14.8172 103.394 18.3436 101.842 22.2597C101.555 22.965 100.462 22.4639 100.731 21.7586C100.788 21.6101 100.826 21.4616 100.884 21.3132C100.98 20.9791 101.248 20.7749 101.612 20.812C123.478 23.5218 143.39 6.61363 165.026 15.4668C165.525 15.6709 165.276 16.5247 164.739 16.3762C151.132 12.3487 139.634 15.4296 126.449 19.2716C124.398 19.8655 101.401 23.596 101.861 22.2783C101.65 22.9093 100.501 22.5567 100.711 21.9256C102.264 17.1743 113.379 13.6479 118.017 13.7221C118.668 13.7221 118.783 14.6872 118.112 14.7244L118.093 14.6872Z" fill="#3A3A3A"/>
<path d="M164.011 16.6546C148.699 16.5989 138.197 24.5983 127.446 34.0268C118.63 41.7849 110.849 42.2489 99.3509 43.511C98.6801 43.5852 98.3927 42.5273 99.0826 42.3603C106.48 40.4671 113.839 41.4323 120.623 37.2934C125.644 34.231 129.362 29.6652 133.923 26.0646C142.298 19.4201 153.106 14.8172 164.049 15.9122C164.49 15.9493 164.471 16.6732 164.011 16.6732V16.6546Z" fill="#3A3A3A"/>
<path d="M100.827 41.3766C108.933 46.6848 120.125 41.9705 127.561 48.0582C127.925 48.3552 127.561 48.912 127.12 48.7264C118.286 45.0144 107.994 47.9468 99.8879 42.4716C99.1022 41.952 100.06 40.8755 100.846 41.3766H100.827Z" fill="#3A3A3A"/>
<path d="M126.583 48.615C118.457 46.5177 111.865 50.3225 104.199 52.1228C98.2775 53.5148 91.7425 53.9046 85.6483 54.2015C85.1309 54.2201 85.0351 53.5891 85.4567 53.3849C92.1067 50.0812 101.593 51.1763 108.875 49.0604C115.046 47.2787 120.623 45.4227 126.871 47.7055C127.388 47.8911 127.12 48.7449 126.583 48.615Z" fill="#3A3A3A"/>
<path d="M87.2969 53.1251C91.1681 54.9068 95.2692 55.3151 99.2554 56.6329C99.6386 56.7628 99.5236 57.431 99.1212 57.4124C95.0584 57.3567 90.3632 56.039 86.837 54.0902C86.2237 53.7561 86.6645 52.791 87.3161 53.1065L87.2969 53.1251Z" fill="#3A3A3A"/>
<path d="M99.4087 58.2476C96.3041 57.9878 93.2953 57.7094 90.1715 57.9878C87.2394 58.2476 84.4798 59.0828 81.6051 59.6396C81.1452 59.7324 80.8769 59.0271 81.2985 58.8044C86.3579 56.1503 94.1002 55.7791 99.562 57.4124C100.099 57.5794 99.9836 58.2847 99.4087 58.2476Z" fill="#3A3A3A"/>
<path d="M49.3899 12.7384C63.9739 10.6783 77.8488 -0.513406 92.931 2.49332C93.5251 2.60468 93.3718 3.45844 92.7585 3.40276C76.9672 1.91796 64.8171 13.5922 49.4666 13.6479C48.8725 13.6479 48.7767 12.8312 49.3707 12.7384H49.3899Z" fill="#3A3A3A"/>
<path d="M92.9885 3.32854C90.8996 4.25654 85.8019 8.5439 84.6712 8.09846C85.2845 8.33974 87.5459 7.07766 88.1399 6.83638C93.9659 4.49782 100.75 3.40278 106.959 2.56758C119.723 0.822934 134.345 0.247573 146.476 5.12886C146.974 5.33302 146.706 6.16822 146.188 6.01974C134.766 2.6975 123.076 2.12214 111.252 3.30998C105.119 3.92246 99.0252 4.94326 93.0652 6.55798C90.9188 7.13334 86.4727 7.6159 84.8246 9.1935C84.5179 9.49046 83.8472 9.30486 83.9813 8.80374C84.8437 5.6671 89.9414 3.66262 92.7202 2.58614C93.2185 2.38198 93.4868 3.12438 93.0077 3.3471L92.9885 3.32854Z" fill="#3A3A3A"/>
<path d="M146.437 6.0197C142.509 7.02194 138.58 8.78514 134.594 9.43474C134.153 9.50898 133.885 8.84082 134.287 8.63666C137.794 6.74354 142.26 5.68562 146.208 5.03602C146.782 4.94322 147.012 5.87122 146.437 6.0197Z" fill="#3A3A3A"/>
<path d="M132.524 10.0287C155.981 3.40278 179.189 15.6338 202.492 17.4713C202.914 17.5084 202.895 18.2137 202.454 18.2137C178.46 17.8239 157.054 5.81558 132.696 10.7525C132.275 10.8453 132.102 10.1401 132.524 10.0287Z" fill="#3A3A3A"/>
<path d="M201.631 18.6963C189.212 18.3993 179.113 24.8953 167.365 27.5123C156.518 29.9065 144.387 29.2384 135.514 36.6809C134.997 37.1078 134.211 36.2912 134.709 35.8086C141.915 28.8486 152.934 28.6073 162.382 27.0112C175.855 24.7283 187.698 17.0815 201.669 17.7683C202.206 17.7868 202.167 18.7148 201.631 18.6963Z" fill="#3A3A3A"/>
<path d="M135.955 35.1961C140.861 35.3817 146.782 36.1241 151.133 38.4441C151.573 38.6853 151.382 39.3349 150.864 39.2607C148.315 38.8895 145.824 37.9615 143.294 37.4233C140.861 36.9221 138.388 36.6252 135.916 36.3839C135.226 36.3097 135.265 35.1589 135.974 35.1775L135.955 35.1961Z" fill="#3A3A3A"/>
<path d="M151.209 38.7596C142.049 39.4092 137.545 47.7426 130.071 51.6588C122.961 55.3894 114.356 56.1689 106.422 56.5772C105.886 56.5958 105.637 55.7791 106.212 55.6492C116.809 53.2364 126.66 53.4777 135.418 46.0722C140.209 42.0076 144.406 37.7016 151.133 37.7016C151.822 37.7016 151.937 38.7039 151.228 38.741L151.209 38.7596Z" fill="#3A3A3A"/>
<path d="M109.431 55.9462C111.635 57.4867 114.069 58.6745 116.254 60.2521C116.733 60.5862 116.33 61.3286 115.775 61.2358C98.431 58.2476 82.1414 66.3027 65.0853 66.8409C64.587 66.8409 64.3187 66.0985 64.8745 65.95C75.9322 63.2403 87.7182 61.1244 99.0442 59.9366C99.1209 59.9366 113.743 59.0271 113.647 59.7695C113.647 59.6211 109.22 57.3753 108.626 56.6329C108.224 56.1318 108.952 55.5935 109.431 55.9276V55.9462Z" fill="#3A3A3A"/>
<path d="M50.712 14.1305C49.428 14.3161 48.2398 14.6687 46.9367 14.7615C46.4001 14.7986 46.3617 14.0748 46.86 13.982C48.1248 13.7221 49.313 13.2767 50.597 13.1097C51.2869 13.0169 51.3636 14.0377 50.6928 14.1305H50.712Z" fill="#3A3A3A"/>
<path d="M43.7551 12.2559C36.4727 14.1676 29.9953 16.5433 23.9585 20.9977C23.5752 21.2761 23.0578 20.7378 23.3836 20.3852C28.4238 15.0214 36.4919 13.1839 43.4677 11.5135C43.9659 11.4022 44.2534 12.126 43.7551 12.2559Z" fill="#3A3A3A"/>
<path d="M19.6283 25.6933C18.7851 26.1202 18.076 26.6956 17.482 27.438C16.907 28.1432 16.5621 28.9784 16.0446 29.7208C15.7572 30.1292 15.1823 29.758 15.2206 29.3496C15.4506 27.3452 17.3094 25.582 19.0726 24.7282C19.6475 24.4498 20.1841 25.4149 19.6091 25.7119L19.6283 25.6933Z" fill="#3A3A3A"/>
<path d="M10.4103 47.0188C11.1002 51.4918 11.7327 56.1875 13.3616 60.4377C15.5464 66.1728 19.3984 69.031 24.8027 71.8336C25.2626 72.0749 25.0709 72.8358 24.5152 72.7059C12.3842 69.7177 10.6786 57.2454 9.60542 47.0931C9.54792 46.5919 10.3337 46.5177 10.4103 47.0188Z" fill="#3A3A3A"/>
<path d="M81.4903 67.6947C66.5806 70.1446 51.2492 77.9213 35.8796 75.9353C35.3046 75.8611 35.3238 74.9145 35.9179 74.9145C51.8433 75.2486 65.7565 67.342 81.3945 66.7667C82.0077 66.7481 82.0844 67.5833 81.4903 67.6761V67.6947Z" fill="#3A3A3A"/>
<path d="M35.9746 79.9814C33.7516 79.9814 31.3752 79.4432 29.2097 78.9978C28.7114 78.8864 28.7305 78.1811 29.248 78.1254C31.471 77.847 33.8091 78.775 36.0321 78.9606C36.6262 79.0163 36.5879 80 35.9938 80L35.9746 79.9814Z" fill="#3A3A3A"/>
<path d="M75.6639 0.971401C66.81 2.4562 59.3551 8.43253 50.3671 9.19349C49.9072 9.23061 49.6964 8.50677 50.1755 8.39541C58.9335 6.37237 66.6375 1.30548 75.568 0.00627876C76.2196 -0.0865214 76.2963 0.878601 75.6639 0.971401Z" fill="#3A3A3A"/>
<path d="M9.68149 34.0454C7.99505 41.6364 4.373 47.8355 7.99504 55.5379C8.20584 56.0019 7.53511 56.2617 7.22848 55.9276C1.99665 49.7843 6.53855 40.2444 8.7041 33.7484C8.87658 33.2102 9.79648 33.5071 9.68149 34.0454Z" fill="#3A3A3A"/>
<path d="M2.43793 44.4018C2.07381 45.534 1.80552 46.6847 1.78636 47.8725C1.78636 48.9119 2.01632 49.8956 2.07381 50.9164C2.09297 51.3989 1.44139 51.5289 1.23058 51.102C0.214878 48.9305 0.73234 46.2578 1.49891 44.1048C1.67139 43.6037 2.61041 43.8821 2.43793 44.4018Z" fill="#3A3A3A"/>
<path d="M5.69591 58.1177C8.01478 64.5023 11.4643 69.2351 17.4819 72.7801C17.9418 73.0585 17.6352 73.6895 17.1178 73.5039C10.4869 71.1097 6.76909 64.6323 4.8335 58.4146C4.66102 57.8764 5.50427 57.5609 5.69591 58.0991V58.1177Z" fill="#3A3A3A"/>
<path d="M169.377 32.7462C164.183 32.8204 159.699 33.9526 154.678 35.0662C154.122 35.1961 153.854 34.5094 154.371 34.2495C158.76 32.1151 164.567 31.3356 169.415 31.7811C169.971 31.8367 169.952 32.7462 169.377 32.7462Z" fill="#3A3A3A"/>
</svg>
